HIERARCHY
ROOT Hips
{
	OFFSET 0.000000 0.000000 0.000000 
	CHANNELS 6 Xposition Yposition Zposition Zrotation Yrotation Xrotation
	JOINT LeftUpLeg
	{
		OFFSET 1.363060 -1.794630 0.839290 
		CHANNELS 3 Zrotation Yrotation Xrotation
		JOINT LeftLeg
		{
			OFFSET 2.448110 -6.726130 0.000000 
			CHANNELS 3 Zrotation Yrotation Xrotation
			JOINT LeftFoot
			{
				OFFSET 2.562200 -7.039590 0.000000 
				CHANNELS 3 Zrotation Yrotation Xrotation
				JOINT LeftToeBase
				{
					OFFSET 0.157640 -0.433110 2.322550 
					CHANNELS 3 Zrotation Yrotation Xrotation
					End Site
					{
						OFFSET 0.000000 0.000000 0.000000 
					}
				}
			}
		}
	}
	JOINT RightUpLeg
	{
		OFFSET -1.305520 -1.794630 0.839290 
		CHANNELS 3 Zrotation Yrotation Xrotation
		JOINT RightLeg
		{
			OFFSET -2.542530 -6.985550 0.000000 
			CHANNELS 3 Zrotation Yrotation Xrotation
			JOINT RightFoot
			{
				OFFSET -2.568260 -7.056230 0.000000 
				CHANNELS 3 Zrotation Yrotation Xrotation
				JOINT RightToeBase
				{
					OFFSET -0.164730 -0.452590 2.363150 
					CHANNELS 3 Zrotation Yrotation Xrotation
					End Site
					{
						OFFSET 0.000000 0.000000 0.000000 
					}
				}
			}
		}
	}
	JOINT Spine
	{
		OFFSET 0.028270 2.035590 -0.193380 
		CHANNELS 3 Zrotation Yrotation Xrotation
		JOINT Spine1
		{
			OFFSET 0.056720 2.048850 -0.042750 
			CHANNELS 3 Zrotation Yrotation Xrotation
			JOINT Neck1
			{
				OFFSET -0.054170 1.746240 0.172020 
				CHANNELS 3 Zrotation Yrotation Xrotation
				JOINT Head
				{
					OFFSET 0.104070 1.761360 -0.123970 
					CHANNELS 3 Zrotation Yrotation Xrotation
					End Site
					{
						OFFSET 0.000000 0.000000 0.000000 
					}
				}
			}
			JOINT LeftArm
			{
				OFFSET 3.362410 1.200890 -0.311210 
				CHANNELS 3 Zrotation Yrotation Xrotation
				JOINT LeftForeArm
				{
					OFFSET 4.983000 -0.000000 -0.000000 
					CHANNELS 3 Zrotation Yrotation Xrotation
					JOINT LeftHand
					{
						OFFSET 3.483560 -0.000000 -0.000000 
						CHANNELS 3 Zrotation Yrotation Xrotation
						JOINT LeftHandIndex1
						{
							OFFSET 0.715260 -0.000000 -0.000000 
							CHANNELS 3 Zrotation Yrotation Xrotation
							End Site
							{
								OFFSET 0.000000 0.000000 0.000000 
							}
						}
					}
				}
			}
			JOINT RightArm
			{
				OFFSET -3.136600 1.374050 -0.404650 
				CHANNELS 3 Zrotation Yrotation Xrotation
				JOINT RightForeArm
				{
					OFFSET -5.241900 -0.000000 -0.000000 
					CHANNELS 3 Zrotation Yrotation Xrotation
					JOINT RightHand
					{
						OFFSET -3.444170 -0.000000 -0.000000 
						CHANNELS 3 Zrotation Yrotation Xrotation
						JOINT RightHandIndex1
						{
							OFFSET -0.622530 -0.000000 -0.000000 
							CHANNELS 3 Zrotation Yrotation Xrotation
							End Site
							{
								OFFSET 0.000000 0.000000 0.000000 
							}
						}
					}
				}
			}
		}
	}
}
MOTION
Frames: 7
Frame Time: 0.041667
1.528025 17.790730 0.186520 -63.119380 86.445764 -53.127081 -18.877024 -6.746804 -21.005498 1.814152 5.690875 20.063486 0.184305 0.808215 -9.595920 1.003000 -6.372900 -17.870400 28.007780 11.795211 -15.507008 -0.120641 -3.052469 13.822272 0.146354 -2.551026 -7.635740 -1.255400 7.103300 -20.021700 0.428786 -1.179478 11.856546 -1.539708 -0.743148 -4.492566 4.877448 -3.512486 1.419692 2.593300 -1.827600 -2.131100 -71.146782 -43.233236 51.880845 139.673581 -42.102902 -103.227573 2.167368 2.077403 -22.459428 -7.125000 0.000000 0.000000 76.636038 30.726509 45.779639 -150.854751 39.737812 -109.441781 1.654902 0.161183 24.112210 7.125000 0.000000 0.000000 
1.554431 17.796248 0.187210 -65.640619 86.383930 -55.837717 -18.763178 -6.612213 -20.522737 1.777388 5.577458 19.769990 0.179574 0.840212 -9.580248 1.021400 -6.429200 -18.035000 28.165137 11.603825 -15.169575 -0.111621 -3.000873 13.723474 0.133625 -2.442486 -7.693161 -1.166500 6.856100 -19.289600 0.473323 -1.154720 11.608169 -1.632687 -0.748377 -4.531633 4.937527 -3.550051 1.387120 2.612500 -1.847400 -2.088000 -71.042243 -43.522188 51.755737 139.668253 -42.041433 -103.252013 2.165146 2.086687 -22.486874 -7.125000 0.000000 0.000000 76.496299 31.069173 45.648826 -150.745609 39.815445 -109.366732 1.618257 0.174151 24.564587 7.125000 0.000000 0.000000 
1.579360 17.806791 0.190067 -66.693631 86.445377 -57.113229 -18.807655 -6.464075 -20.030592 1.746877 5.478158 19.517957 0.180443 0.824491 -9.590315 1.039100 -6.483100 -18.192700 28.155602 11.465745 -14.887091 -0.114426 -2.992035 13.738914 0.134233 -2.480826 -7.768502 -1.149300 6.807200 -19.145400 0.513404 -1.166521 11.321925 -1.598453 -0.764373 -4.617342 5.012094 -3.521095 1.185114 2.659500 -1.836700 -2.159500 -70.935232 -43.687015 51.572355 139.682857 -42.004921 -103.261640 2.196900 2.114371 -22.394754 -7.125000 0.000000 0.000000 76.400486 31.352790 45.490089 -150.766972 39.780755 -109.391080 1.626220 0.175769 24.118700 7.125000 0.000000 0.000000 
1.602613 17.809845 0.193220 -67.266218 86.533276 -57.849259 -18.874898 -6.429554 -19.653158 1.731958 5.426993 19.396361 0.183371 0.831456 -9.650724 1.064600 -6.559600 -18.417000 28.115244 11.221523 -14.605457 -0.102398 -2.928842 13.601598 0.140046 -2.475389 -7.702637 -1.160600 6.839400 -19.240500 0.513587 -1.204947 10.592884 -1.560622 -0.803893 -5.313280 4.935493 -3.415133 1.182909 2.623900 -1.781900 -2.192800 -70.761853 -43.158755 51.369088 139.805702 -42.004729 -103.302637 2.239680 2.136736 -22.230482 -7.125000 0.000000 0.000000 76.411335 31.096942 45.636895 -150.790282 39.767930 -109.403724 1.631475 0.180329 23.950752 7.125000 0.000000 0.000000 
1.623305 17.805608 0.195191 -71.345548 86.522851 -62.091252 -18.741705 -6.407968 -19.348315 1.729432 5.390510 19.336538 0.184526 0.776865 -9.613980 1.072600 -6.583500 -18.487100 28.301134 10.822297 -14.336330 -0.090791 -2.868374 13.465199 0.128186 -2.310544 -7.659997 -1.182400 6.901000 -19.422300 0.596185 -1.268664 10.199895 -1.580556 -0.862464 -5.530394 4.728528 -3.401660 1.060940 2.518600 -1.768900 -2.232100 -70.543511 -43.159592 51.126469 139.860181 -41.923704 -103.379420 2.204333 2.123286 -22.238639 -7.125000 0.000000 0.000000 76.351773 31.309762 45.668363 -150.716966 39.820547 -109.353450 1.612308 0.201342 23.935647 7.125000 0.000000 0.000000 
1.644390 17.799598 0.194205 -74.391143 86.551856 -65.345738 -18.688411 -6.398757 -19.003947 1.731694 5.367121 19.316961 0.192076 0.700774 -9.645639 1.052900 -6.524600 -18.314400 28.407820 10.468493 -13.979531 -0.080242 -2.802110 13.330889 0.114571 -2.156069 -7.667220 -1.241700 7.065700 -19.910100 0.699394 -1.368030 10.037915 -1.543804 -0.925468 -5.478530 4.618096 -3.381827 0.980638 2.487100 -1.754400 -2.201600 -70.368419 -43.590971 50.754155 139.758975 -41.896659 -103.364504 2.184156 2.101223 -22.152432 -7.125000 0.000000 0.000000 76.271565 31.951096 45.394370 -150.826491 39.694903 -109.463959 1.696263 0.182492 22.189242 7.125000 0.000000 0.000000 
1.665969 17.796248 0.194600 -75.971143 86.611289 -67.150443 -18.713952 -6.338434 -18.634263 1.729043 5.335823 19.265694 0.202745 0.608409 -9.701834 1.037900 -6.479500 -18.182100 28.417149 10.201034 -13.608501 -0.070157 -2.736253 13.201399 0.104857 -2.049336 -7.688898 -1.303700 7.233400 -20.408600 0.893285 -1.504473 9.821055 -1.352847 -0.996265 -5.518779 4.619231 -3.285692 0.963896 2.542700 -1.704900 -2.152000 -70.289777 -43.860848 50.269067 139.703164 -41.897668 -103.348964 2.158137 2.137740 -22.019987 -7.125000 0.000000 0.000000 76.069880 32.412596 45.780930 -150.629870 39.826236 -109.330263 1.652755 0.211068 22.639803 7.125000 0.000000 0.000000 
